<mxfile host="65bd71144e">
    <diagram id="e1bqsqc4w4gOOXVEwcEt" name="Seite-1">
        <mxGraphModel dx="1040" dy="530" grid="1" gridSize="10" guides="1" tooltips="1" connect="1" arrows="1" fold="1" page="1" pageScale="1" pageWidth="1169" pageHeight="827" math="0" shadow="0">
            <root>
                <mxCell id="0"/>
                <mxCell id="1" parent="0"/>
                <mxCell id="MhyNpJ7-BG37_3553kRq-2" value="Client" style="shape=umlActor;verticalLabelPosition=bottom;verticalAlign=top;html=1;outlineConnect=0;" parent="1" vertex="1">
                    <mxGeometry x="120" y="325" width="30" height="60" as="geometry"/>
                </mxCell>
                <mxCell id="MhyNpJ7-BG37_3553kRq-3" value="Retailer" style="rounded=0;whiteSpace=wrap;html=1;fillColor=#dae8fc;strokeColor=#6c8ebf;" parent="1" vertex="1">
                    <mxGeometry x="240" y="320" width="120" height="80" as="geometry"/>
                </mxCell>
                <mxCell id="MhyNpJ7-BG37_3553kRq-5" value="Distributor A" style="rounded=0;whiteSpace=wrap;html=1;fillColor=#f8cecc;strokeColor=#b85450;" parent="1" vertex="1">
                    <mxGeometry x="440" y="320" width="120" height="80" as="geometry"/>
                </mxCell>
                <mxCell id="MhyNpJ7-BG37_3553kRq-6" value="&lt;font&gt;Fare Provider 1&lt;/font&gt;" style="rounded=0;whiteSpace=wrap;html=1;fillColor=#d5e8d4;strokeColor=#82b366;" parent="1" vertex="1">
                    <mxGeometry x="640" y="335" width="120" height="50" as="geometry"/>
                </mxCell>
                <mxCell id="MhyNpJ7-BG37_3553kRq-8" value="Client" style="shape=umlActor;verticalLabelPosition=bottom;verticalAlign=top;html=1;outlineConnect=0;" parent="1" vertex="1">
                    <mxGeometry x="120" y="570" width="30" height="60" as="geometry"/>
                </mxCell>
                <mxCell id="MhyNpJ7-BG37_3553kRq-9" value="Retailer" style="rounded=0;whiteSpace=wrap;html=1;fillColor=#dae8fc;strokeColor=#6c8ebf;" parent="1" vertex="1">
                    <mxGeometry x="240" y="560" width="120" height="80" as="geometry"/>
                </mxCell>
                <mxCell id="MhyNpJ7-BG37_3553kRq-10" value="Distributor A" style="rounded=0;whiteSpace=wrap;html=1;fillColor=#f8cecc;strokeColor=#b85450;" parent="1" vertex="1">
                    <mxGeometry x="440" y="560" width="120" height="80" as="geometry"/>
                </mxCell>
                <mxCell id="MhyNpJ7-BG37_3553kRq-12" value="Fare Provider 2" style="rounded=0;whiteSpace=wrap;html=1;strokeColor=#82b366;fillColor=#d5e8d4;" parent="1" vertex="1">
                    <mxGeometry x="640" y="610" width="120" height="50" as="geometry"/>
                </mxCell>
                <mxCell id="MhyNpJ7-BG37_3553kRq-13" value="Cleint" style="shape=umlActor;verticalLabelPosition=bottom;verticalAlign=top;html=1;outlineConnect=0;" parent="1" vertex="1">
                    <mxGeometry x="120" y="930" width="30" height="60" as="geometry"/>
                </mxCell>
                <mxCell id="MhyNpJ7-BG37_3553kRq-14" value="Retailer" style="rounded=0;whiteSpace=wrap;html=1;fillColor=#dae8fc;strokeColor=#6c8ebf;" parent="1" vertex="1">
                    <mxGeometry x="240" y="920" width="120" height="80" as="geometry"/>
                </mxCell>
                <mxCell id="MhyNpJ7-BG37_3553kRq-15" value="Distributor A" style="rounded=0;whiteSpace=wrap;html=1;strokeColor=#b85450;fillColor=#f8cecc;" parent="1" vertex="1">
                    <mxGeometry x="440" y="840" width="120" height="80" as="geometry"/>
                </mxCell>
                <mxCell id="MhyNpJ7-BG37_3553kRq-16" value="&lt;font&gt;Fare Provider 1&lt;/font&gt;" style="rounded=0;whiteSpace=wrap;html=1;strokeColor=#82b366;fillColor=#d5e8d4;" parent="1" vertex="1">
                    <mxGeometry x="640" y="820" width="120" height="50" as="geometry"/>
                </mxCell>
                <mxCell id="MhyNpJ7-BG37_3553kRq-17" value="Fare Provider 2" style="rounded=0;whiteSpace=wrap;html=1;strokeColor=#82b366;fillColor=#d5e8d4;" parent="1" vertex="1">
                    <mxGeometry x="640" y="890" width="120" height="50" as="geometry"/>
                </mxCell>
                <mxCell id="MhyNpJ7-BG37_3553kRq-18" value="Distributor B" style="rounded=0;whiteSpace=wrap;html=1;strokeColor=#b85450;fillColor=#f8cecc;" parent="1" vertex="1">
                    <mxGeometry x="440" y="1000" width="120" height="80" as="geometry"/>
                </mxCell>
                <mxCell id="MhyNpJ7-BG37_3553kRq-19" value="Fare Provider 3" style="rounded=0;whiteSpace=wrap;html=1;strokeColor=#82b366;fillColor=#d5e8d4;" parent="1" vertex="1">
                    <mxGeometry x="640" y="1015" width="120" height="50" as="geometry"/>
                </mxCell>
                <mxCell id="MhyNpJ7-BG37_3553kRq-21" value="&lt;font&gt;Fare Provider 1&lt;/font&gt;" style="rounded=0;whiteSpace=wrap;html=1;fillColor=#d5e8d4;strokeColor=#82b366;" parent="1" vertex="1">
                    <mxGeometry x="640" y="540" width="120" height="50" as="geometry"/>
                </mxCell>
                <mxCell id="MhyNpJ7-BG37_3553kRq-24" value="&lt;font color=&quot;#000000&quot;&gt;Response Time&lt;br&gt;Fare Provider&lt;br&gt;&lt;/font&gt;" style="endArrow=classic;startArrow=classic;html=1;fontColor=#007FFF;" parent="1" edge="1">
                    <mxGeometry width="50" height="50" relative="1" as="geometry">
                        <mxPoint x="640" y="1200" as="sourcePoint"/>
                        <mxPoint x="760" y="1200" as="targetPoint"/>
                    </mxGeometry>
                </mxCell>
                <mxCell id="MhyNpJ7-BG37_3553kRq-25" value="Response Time&amp;nbsp;&lt;br&gt;Distributor" style="endArrow=classic;startArrow=classic;html=1;" parent="1" edge="1">
                    <mxGeometry width="50" height="50" relative="1" as="geometry">
                        <mxPoint x="440" y="1200" as="sourcePoint"/>
                        <mxPoint x="560" y="1200" as="targetPoint"/>
                    </mxGeometry>
                </mxCell>
                <mxCell id="MhyNpJ7-BG37_3553kRq-26" value="Response Time&lt;br&gt;Retaiter" style="endArrow=classic;startArrow=classic;html=1;" parent="1" edge="1">
                    <mxGeometry width="50" height="50" relative="1" as="geometry">
                        <mxPoint x="240" y="1200" as="sourcePoint"/>
                        <mxPoint x="360" y="1200" as="targetPoint"/>
                    </mxGeometry>
                </mxCell>
                <mxCell id="MhyNpJ7-BG37_3553kRq-27" value="Response Time&lt;br&gt;Pricing Engine" style="endArrow=classic;startArrow=classic;html=1;" parent="1" edge="1">
                    <mxGeometry width="50" height="50" relative="1" as="geometry">
                        <mxPoint x="440" y="1261" as="sourcePoint"/>
                        <mxPoint x="760" y="1261" as="targetPoint"/>
                    </mxGeometry>
                </mxCell>
                <mxCell id="MhyNpJ7-BG37_3553kRq-28" value="&lt;font color=&quot;#000000&quot;&gt;Response Time &lt;br&gt;End 2 End&lt;/font&gt;" style="endArrow=classic;startArrow=classic;html=1;fontColor=#007FFF;" parent="1" edge="1">
                    <mxGeometry width="50" height="50" relative="1" as="geometry">
                        <mxPoint x="160" y="1380" as="sourcePoint"/>
                        <mxPoint x="760" y="1380" as="targetPoint"/>
                    </mxGeometry>
                </mxCell>
                <mxCell id="MhyNpJ7-BG37_3553kRq-30" value="Scenario One Distributor - One Fare Provider" style="text;html=1;strokeColor=none;fillColor=none;align=left;verticalAlign=middle;whiteSpace=wrap;rounded=0;fontColor=#000000;fontStyle=1;fontSize=14;" parent="1" vertex="1">
                    <mxGeometry x="80" y="220" width="360" height="20" as="geometry"/>
                </mxCell>
                <mxCell id="MhyNpJ7-BG37_3553kRq-32" value="Scenario One Distributor - Multiple Fare Providers" style="text;html=1;strokeColor=none;fillColor=none;align=left;verticalAlign=middle;whiteSpace=wrap;rounded=0;fontColor=#000000;fontStyle=1;fontSize=14;" parent="1" vertex="1">
                    <mxGeometry x="80" y="460" width="360" height="20" as="geometry"/>
                </mxCell>
                <mxCell id="MhyNpJ7-BG37_3553kRq-34" value="Scenario Multiple Distributors - Multiple Fare Providers" style="text;html=1;strokeColor=none;fillColor=none;align=left;verticalAlign=middle;whiteSpace=wrap;rounded=0;fontColor=#000000;fontStyle=1;fontSize=14;" parent="1" vertex="1">
                    <mxGeometry x="80" y="740" width="400" height="20" as="geometry"/>
                </mxCell>
                <mxCell id="MhyNpJ7-BG37_3553kRq-35" value="E.g:. öBB sells Garnisch-Partenkirchen - Innsbruck" style="text;html=1;strokeColor=none;fillColor=none;align=left;verticalAlign=middle;whiteSpace=wrap;rounded=0;fontColor=#000000;" parent="1" vertex="1">
                    <mxGeometry x="80" y="260" width="320" height="20" as="geometry"/>
                </mxCell>
                <mxCell id="MhyNpJ7-BG37_3553kRq-39" value="E.g:. öBB sells Garnisch-Partenkirchen - Innsbruck - Basel" style="text;html=1;strokeColor=none;fillColor=none;align=left;verticalAlign=middle;whiteSpace=wrap;rounded=0;fontColor=#000000;" parent="1" vertex="1">
                    <mxGeometry x="80" y="500" width="320" height="20" as="geometry"/>
                </mxCell>
                <mxCell id="MhyNpJ7-BG37_3553kRq-40" value="E.g:. öBB sells Garnisch-Partenkirchen - Innsbruck - Basel - Colmar" style="text;html=1;strokeColor=none;fillColor=none;align=left;verticalAlign=middle;whiteSpace=wrap;rounded=0;fontColor=#000000;" parent="1" vertex="1">
                    <mxGeometry x="80" y="780" width="370" height="20" as="geometry"/>
                </mxCell>
                <mxCell id="MhyNpJ7-BG37_3553kRq-41" value="&lt;font style=&quot;font-size: 12px&quot;&gt;Webshop öBB&lt;/font&gt;" style="text;html=1;strokeColor=none;fillColor=none;align=center;verticalAlign=middle;whiteSpace=wrap;rounded=0;fontSize=14;fontColor=#000000;fontStyle=2" parent="1" vertex="1">
                    <mxGeometry x="255" y="380" width="90" height="20" as="geometry"/>
                </mxCell>
                <mxCell id="MhyNpJ7-BG37_3553kRq-42" value="&lt;font style=&quot;font-size: 12px&quot;&gt;Webshop öBB&lt;/font&gt;" style="text;html=1;strokeColor=none;fillColor=none;align=center;verticalAlign=middle;whiteSpace=wrap;rounded=0;fontSize=14;fontColor=#000000;fontStyle=2" parent="1" vertex="1">
                    <mxGeometry x="255" y="620" width="90" height="20" as="geometry"/>
                </mxCell>
                <mxCell id="MhyNpJ7-BG37_3553kRq-43" value="&lt;font style=&quot;font-size: 12px&quot;&gt;Webshop öBB&lt;/font&gt;" style="text;html=1;strokeColor=none;fillColor=none;align=center;verticalAlign=middle;whiteSpace=wrap;rounded=0;fontSize=14;fontColor=#000000;fontStyle=2" parent="1" vertex="1">
                    <mxGeometry x="255" y="980" width="90" height="20" as="geometry"/>
                </mxCell>
                <mxCell id="MhyNpJ7-BG37_3553kRq-44" value="&lt;i style=&quot;font-size: 12px&quot;&gt;öBB&lt;/i&gt;" style="text;html=1;strokeColor=none;fillColor=none;align=center;verticalAlign=middle;whiteSpace=wrap;rounded=0;fontSize=14;fontColor=#000000;" parent="1" vertex="1">
                    <mxGeometry x="680" y="365" width="40" height="20" as="geometry"/>
                </mxCell>
                <mxCell id="MhyNpJ7-BG37_3553kRq-45" value="&lt;i style=&quot;font-size: 12px&quot;&gt;öBB&lt;/i&gt;" style="text;html=1;strokeColor=none;fillColor=none;align=center;verticalAlign=middle;whiteSpace=wrap;rounded=0;fontSize=14;fontColor=#000000;" parent="1" vertex="1">
                    <mxGeometry x="680" y="570" width="40" height="20" as="geometry"/>
                </mxCell>
                <mxCell id="MhyNpJ7-BG37_3553kRq-46" value="&lt;i style=&quot;font-size: 12px&quot;&gt;öBB&lt;/i&gt;" style="text;html=1;strokeColor=none;fillColor=none;align=center;verticalAlign=middle;whiteSpace=wrap;rounded=0;fontSize=14;fontColor=#000000;" parent="1" vertex="1">
                    <mxGeometry x="680" y="850" width="40" height="20" as="geometry"/>
                </mxCell>
                <mxCell id="MhyNpJ7-BG37_3553kRq-47" value="&lt;i style=&quot;font-size: 12px&quot;&gt;SBB&lt;/i&gt;" style="text;html=1;strokeColor=none;fillColor=none;align=center;verticalAlign=middle;whiteSpace=wrap;rounded=0;fontSize=14;fontColor=#000000;" parent="1" vertex="1">
                    <mxGeometry x="680" y="640" width="40" height="20" as="geometry"/>
                </mxCell>
                <mxCell id="MhyNpJ7-BG37_3553kRq-48" value="&lt;i style=&quot;font-size: 12px&quot;&gt;SBB&lt;/i&gt;" style="text;html=1;strokeColor=none;fillColor=none;align=center;verticalAlign=middle;whiteSpace=wrap;rounded=0;fontSize=14;fontColor=#000000;" parent="1" vertex="1">
                    <mxGeometry x="680" y="920" width="40" height="20" as="geometry"/>
                </mxCell>
                <mxCell id="MhyNpJ7-BG37_3553kRq-49" value="&lt;i style=&quot;font-size: 12px&quot;&gt;SNCF&lt;/i&gt;" style="text;html=1;strokeColor=none;fillColor=none;align=center;verticalAlign=middle;whiteSpace=wrap;rounded=0;fontSize=14;fontColor=#000000;" parent="1" vertex="1">
                    <mxGeometry x="680" y="1045" width="40" height="20" as="geometry"/>
                </mxCell>
                <mxCell id="MhyNpJ7-BG37_3553kRq-52" value="&lt;i style=&quot;font-size: 12px&quot;&gt;öBB&lt;/i&gt;" style="text;html=1;strokeColor=none;fillColor=none;align=center;verticalAlign=middle;whiteSpace=wrap;rounded=0;fontSize=14;fontColor=#000000;" parent="1" vertex="1">
                    <mxGeometry x="480" y="380" width="40" height="20" as="geometry"/>
                </mxCell>
                <mxCell id="MhyNpJ7-BG37_3553kRq-54" value="&lt;i style=&quot;font-size: 12px&quot;&gt;öBB&lt;/i&gt;" style="text;html=1;strokeColor=none;fillColor=none;align=center;verticalAlign=middle;whiteSpace=wrap;rounded=0;fontSize=14;fontColor=#000000;" parent="1" vertex="1">
                    <mxGeometry x="480" y="620" width="40" height="20" as="geometry"/>
                </mxCell>
                <mxCell id="MhyNpJ7-BG37_3553kRq-55" value="&lt;i style=&quot;font-size: 12px&quot;&gt;öBB&lt;/i&gt;" style="text;html=1;strokeColor=none;fillColor=none;align=center;verticalAlign=middle;whiteSpace=wrap;rounded=0;fontSize=14;fontColor=#000000;" parent="1" vertex="1">
                    <mxGeometry x="480" y="900" width="40" height="20" as="geometry"/>
                </mxCell>
                <mxCell id="MhyNpJ7-BG37_3553kRq-56" value="&lt;i style=&quot;font-size: 12px&quot;&gt;SNCF&lt;/i&gt;" style="text;html=1;strokeColor=none;fillColor=none;align=center;verticalAlign=middle;whiteSpace=wrap;rounded=0;fontSize=14;fontColor=#000000;" parent="1" vertex="1">
                    <mxGeometry x="480" y="1060" width="40" height="20" as="geometry"/>
                </mxCell>
                <mxCell id="MhyNpJ7-BG37_3553kRq-57" value="&lt;font style=&quot;font-size: 11px&quot;&gt;Response Time&lt;br&gt;Channel&lt;/font&gt;" style="endArrow=classic;startArrow=classic;html=1;fontSize=14;fontColor=#000000;" parent="1" edge="1">
                    <mxGeometry width="50" height="50" relative="1" as="geometry">
                        <mxPoint x="240" y="1320" as="sourcePoint"/>
                        <mxPoint x="760" y="1320" as="targetPoint"/>
                    </mxGeometry>
                </mxCell>
                <mxCell id="MhyNpJ7-BG37_3553kRq-59" value="Actor" style="shape=umlActor;verticalLabelPosition=bottom;verticalAlign=top;html=1;outlineConnect=0;" parent="1" vertex="1">
                    <mxGeometry x="130" y="1340" width="30" height="60" as="geometry"/>
                </mxCell>
                <mxCell id="k7z-Xo-tFUnNJjGEsjoT-1" value="" style="endArrow=classic;startArrow=classic;html=1;strokeColor=#CCCCCC;entryX=0;entryY=0.5;entryDx=0;entryDy=0;" parent="1" target="MhyNpJ7-BG37_3553kRq-5" edge="1">
                    <mxGeometry width="50" height="50" relative="1" as="geometry">
                        <mxPoint x="360" y="359.5" as="sourcePoint"/>
                        <mxPoint x="420" y="359.5" as="targetPoint"/>
                    </mxGeometry>
                </mxCell>
                <mxCell id="k7z-Xo-tFUnNJjGEsjoT-2" value="" style="endArrow=classic;startArrow=classic;html=1;strokeColor=#CCCCCC;entryX=0;entryY=0.5;entryDx=0;entryDy=0;" parent="1" edge="1">
                    <mxGeometry width="50" height="50" relative="1" as="geometry">
                        <mxPoint x="360" y="599.5" as="sourcePoint"/>
                        <mxPoint x="440" y="600" as="targetPoint"/>
                    </mxGeometry>
                </mxCell>
                <mxCell id="k7z-Xo-tFUnNJjGEsjoT-3" value="" style="endArrow=classic;startArrow=classic;html=1;strokeColor=#CCCCCC;entryX=0;entryY=0.5;entryDx=0;entryDy=0;" parent="1" edge="1">
                    <mxGeometry width="50" height="50" relative="1" as="geometry">
                        <mxPoint x="560" y="359.5" as="sourcePoint"/>
                        <mxPoint x="640" y="360" as="targetPoint"/>
                    </mxGeometry>
                </mxCell>
                <mxCell id="k7z-Xo-tFUnNJjGEsjoT-4" value="" style="endArrow=classic;startArrow=classic;html=1;strokeColor=#CCCCCC;entryX=0;entryY=0.5;entryDx=0;entryDy=0;" parent="1" target="MhyNpJ7-BG37_3553kRq-21" edge="1">
                    <mxGeometry width="50" height="50" relative="1" as="geometry">
                        <mxPoint x="560" y="600" as="sourcePoint"/>
                        <mxPoint x="640" y="580" as="targetPoint"/>
                    </mxGeometry>
                </mxCell>
                <mxCell id="k7z-Xo-tFUnNJjGEsjoT-5" value="" style="endArrow=classic;startArrow=classic;html=1;strokeColor=#CCCCCC;entryX=0;entryY=0.5;entryDx=0;entryDy=0;" parent="1" target="MhyNpJ7-BG37_3553kRq-12" edge="1">
                    <mxGeometry width="50" height="50" relative="1" as="geometry">
                        <mxPoint x="560" y="599.5" as="sourcePoint"/>
                        <mxPoint x="640" y="600" as="targetPoint"/>
                    </mxGeometry>
                </mxCell>
                <mxCell id="k7z-Xo-tFUnNJjGEsjoT-6" value="" style="endArrow=classic;startArrow=classic;html=1;strokeColor=#CCCCCC;entryX=0;entryY=0.5;entryDx=0;entryDy=0;" parent="1" target="MhyNpJ7-BG37_3553kRq-15" edge="1">
                    <mxGeometry width="50" height="50" relative="1" as="geometry">
                        <mxPoint x="360" y="959.5" as="sourcePoint"/>
                        <mxPoint x="440" y="960" as="targetPoint"/>
                    </mxGeometry>
                </mxCell>
                <mxCell id="k7z-Xo-tFUnNJjGEsjoT-7" value="" style="endArrow=classic;startArrow=classic;html=1;strokeColor=#CCCCCC;entryX=0;entryY=0.5;entryDx=0;entryDy=0;" parent="1" target="MhyNpJ7-BG37_3553kRq-16" edge="1">
                    <mxGeometry width="50" height="50" relative="1" as="geometry">
                        <mxPoint x="560" y="879.5" as="sourcePoint"/>
                        <mxPoint x="640" y="880" as="targetPoint"/>
                    </mxGeometry>
                </mxCell>
                <mxCell id="k7z-Xo-tFUnNJjGEsjoT-8" value="" style="endArrow=classic;startArrow=classic;html=1;strokeColor=#CCCCCC;entryX=0;entryY=0.5;entryDx=0;entryDy=0;" parent="1" target="MhyNpJ7-BG37_3553kRq-18" edge="1">
                    <mxGeometry width="50" height="50" relative="1" as="geometry">
                        <mxPoint x="360" y="959.5" as="sourcePoint"/>
                        <mxPoint x="440" y="960" as="targetPoint"/>
                    </mxGeometry>
                </mxCell>
                <mxCell id="k7z-Xo-tFUnNJjGEsjoT-9" value="" style="endArrow=classic;startArrow=classic;html=1;strokeColor=#CCCCCC;entryX=0;entryY=0.5;entryDx=0;entryDy=0;" parent="1" target="MhyNpJ7-BG37_3553kRq-17" edge="1">
                    <mxGeometry width="50" height="50" relative="1" as="geometry">
                        <mxPoint x="560" y="879.5" as="sourcePoint"/>
                        <mxPoint x="640" y="880" as="targetPoint"/>
                    </mxGeometry>
                </mxCell>
                <mxCell id="k7z-Xo-tFUnNJjGEsjoT-10" value="" style="endArrow=classic;startArrow=classic;html=1;strokeColor=#CCCCCC;entryX=0;entryY=0.5;entryDx=0;entryDy=0;" parent="1" edge="1">
                    <mxGeometry width="50" height="50" relative="1" as="geometry">
                        <mxPoint x="160" y="359.5" as="sourcePoint"/>
                        <mxPoint x="240" y="360" as="targetPoint"/>
                    </mxGeometry>
                </mxCell>
                <mxCell id="k7z-Xo-tFUnNJjGEsjoT-11" value="" style="endArrow=classic;startArrow=classic;html=1;strokeColor=#CCCCCC;entryX=0;entryY=0.5;entryDx=0;entryDy=0;" parent="1" edge="1">
                    <mxGeometry width="50" height="50" relative="1" as="geometry">
                        <mxPoint x="160" y="599.5" as="sourcePoint"/>
                        <mxPoint x="240" y="600" as="targetPoint"/>
                    </mxGeometry>
                </mxCell>
                <mxCell id="k7z-Xo-tFUnNJjGEsjoT-12" value="" style="endArrow=classic;startArrow=classic;html=1;strokeColor=#CCCCCC;entryX=0;entryY=0.5;entryDx=0;entryDy=0;" parent="1" edge="1">
                    <mxGeometry width="50" height="50" relative="1" as="geometry">
                        <mxPoint x="160" y="959.5" as="sourcePoint"/>
                        <mxPoint x="240" y="960" as="targetPoint"/>
                    </mxGeometry>
                </mxCell>
                <mxCell id="k7z-Xo-tFUnNJjGEsjoT-13" value="" style="endArrow=classic;startArrow=classic;html=1;strokeColor=#CCCCCC;entryX=0;entryY=0.5;entryDx=0;entryDy=0;" parent="1" edge="1">
                    <mxGeometry width="50" height="50" relative="1" as="geometry">
                        <mxPoint x="560" y="1039.5" as="sourcePoint"/>
                        <mxPoint x="640" y="1040" as="targetPoint"/>
                    </mxGeometry>
                </mxCell>
                <mxCell id="k7z-Xo-tFUnNJjGEsjoT-14" value="&lt;font style=&quot;font-size: 8px&quot;&gt;Comm. &lt;br&gt;Time 1&lt;/font&gt;" style="endArrow=classic;startArrow=classic;html=1;strokeColor=#CCCCCC;entryX=0;entryY=0.5;entryDx=0;entryDy=0;" parent="1" edge="1">
                    <mxGeometry width="50" height="50" relative="1" as="geometry">
                        <mxPoint x="560" y="1200" as="sourcePoint"/>
                        <mxPoint x="640" y="1200.5" as="targetPoint"/>
                    </mxGeometry>
                </mxCell>
                <mxCell id="k7z-Xo-tFUnNJjGEsjoT-15" value="&lt;font style=&quot;font-size: 8px&quot;&gt;Comm.&lt;br&gt;Time 2&lt;/font&gt;" style="endArrow=classic;startArrow=classic;html=1;strokeColor=#CCCCCC;entryX=0;entryY=0.5;entryDx=0;entryDy=0;" parent="1" edge="1">
                    <mxGeometry width="50" height="50" relative="1" as="geometry">
                        <mxPoint x="360" y="1200" as="sourcePoint"/>
                        <mxPoint x="440" y="1200.5" as="targetPoint"/>
                    </mxGeometry>
                </mxCell>
            </root>
        </mxGraphModel>
    </diagram>
</mxfile>